<svg width="573" height="100" viewBox="0 0 573 100" fill="none" xmlns="http://www.w3.org/2000/svg">
<rect width="573" height="100" fill="#1E1E1E"/>
<path d="M0.090909 4.90909H24.3636L50 67.4545H51.0909L76.7273 4.90909H101V98H81.9091V37.4091H81.1364L57.0455 97.5455H44.0455L19.9545 37.1818H19.1818V98H0.090909V4.90909ZM125.241 99.3182C120.787 99.3182 116.817 98.5455 113.332 97C109.847 95.4242 107.09 93.1061 105.06 90.0455C103.06 86.9545 102.06 83.1061 102.06 78.5C102.06 74.6212 102.772 71.3636 104.196 68.7273C105.62 66.0909 107.56 63.9697 110.014 62.3636C112.469 60.7576 115.257 59.5455 118.378 58.7273C121.529 57.9091 124.832 57.3333 128.287 57C132.347 56.5758 135.62 56.1818 138.105 55.8182C140.59 55.4242 142.393 54.8485 143.514 54.0909C144.635 53.3333 145.196 52.2121 145.196 50.7273V50.4545C145.196 47.5758 144.287 45.3485 142.469 43.7727C140.681 42.197 138.135 41.4091 134.832 41.4091C131.347 41.4091 128.575 42.1818 126.514 43.7273C124.453 45.2424 123.09 47.1515 122.423 49.4545L104.514 48C105.423 43.7576 107.211 40.0909 109.878 37C112.544 33.8788 115.984 31.4848 120.196 29.8182C124.438 28.1212 129.347 27.2727 134.923 27.2727C138.802 27.2727 142.514 27.7273 146.06 28.6364C149.635 29.5455 152.802 30.9545 155.56 32.8636C158.347 34.7727 160.544 37.2273 162.15 40.2273C163.757 43.197 164.56 46.7576 164.56 50.9091V98H146.196V88.3182H145.65C144.529 90.5 143.029 92.4242 141.15 94.0909C139.272 95.7273 137.014 97.0152 134.378 97.9545C131.741 98.8636 128.696 99.3182 125.241 99.3182ZM130.787 85.9545C133.635 85.9545 136.15 85.3939 138.332 84.2727C140.514 83.1212 142.226 81.5758 143.469 79.6364C144.711 77.697 145.332 75.5 145.332 73.0455V65.6364C144.726 66.0303 143.893 66.3939 142.832 66.7273C141.802 67.0303 140.635 67.3182 139.332 67.5909C138.029 67.8333 136.726 68.0606 135.423 68.2727C134.12 68.4545 132.938 68.6212 131.878 68.7727C129.605 69.1061 127.62 69.6364 125.923 70.3636C124.226 71.0909 122.908 72.0758 121.969 73.3182C121.029 74.5303 120.56 76.0455 120.56 77.8636C120.56 80.5 121.514 82.5152 123.423 83.9091C125.363 85.2727 127.817 85.9545 130.787 85.9545ZM205.608 28.1818V42.7273H162.517V28.1818H205.608ZM172.38 98V23.1364C172.38 18.0758 173.365 13.8788 175.335 10.5454C177.335 7.21211 180.062 4.71211 183.517 3.04545C186.971 1.37878 190.896 0.545448 195.29 0.545448C198.259 0.545448 200.971 0.772723 203.426 1.22727C205.911 1.68182 207.759 2.09091 208.971 2.45454L205.517 17C204.759 16.7576 203.82 16.5303 202.699 16.3182C201.608 16.1061 200.487 16 199.335 16C196.487 16 194.502 16.6667 193.38 18C192.259 19.303 191.699 21.1364 191.699 23.5V98H172.38ZM219.69 98L200.69 28.1818H220.281L231.099 75.0909H231.735L243.008 28.1818H262.235L273.69 74.8182H274.281L284.917 28.1818H304.463L285.508 98H265.008L253.008 54.0909H252.145L240.145 98H219.69ZM303.636 98V4.90909H323V39.9091H323.59C324.439 38.0303 325.666 36.1212 327.272 34.1818C328.909 32.2121 331.03 30.5758 333.636 29.2727C336.272 27.9394 339.545 27.2727 343.454 27.2727C348.545 27.2727 353.242 28.6061 357.545 31.2727C361.848 33.9091 365.287 37.8939 367.863 43.2273C370.439 48.5303 371.727 55.1818 371.727 63.1818C371.727 70.9697 370.469 77.5455 367.954 82.9091C365.469 88.2424 362.075 92.2879 357.772 95.0455C353.5 97.7727 348.712 99.1364 343.409 99.1364C339.651 99.1364 336.454 98.5152 333.818 97.2727C331.212 96.0303 329.075 94.4697 327.409 92.5909C325.742 90.6818 324.469 88.7576 323.59 86.8182H322.727V98H303.636ZM322.59 63.0909C322.59 67.2424 323.166 70.8636 324.318 73.9545C325.469 77.0455 327.136 79.4545 329.318 81.1818C331.5 82.8788 334.151 83.7273 337.272 83.7273C340.424 83.7273 343.09 82.8636 345.272 81.1364C347.454 79.3788 349.106 76.9545 350.227 73.8636C351.378 70.7424 351.954 67.1515 351.954 63.0909C351.954 59.0606 351.393 55.5151 350.272 52.4545C349.151 49.3939 347.5 47 345.318 45.2727C343.136 43.5455 340.454 42.6818 337.272 42.6818C334.121 42.6818 331.454 43.5151 329.272 45.1818C327.121 46.8485 325.469 49.2121 324.318 52.2727C323.166 55.3333 322.59 58.9394 322.59 63.0909ZM392.491 57.6364V98H373.127V4.90909H391.945V40.5H392.764C394.339 36.3788 396.885 33.1515 400.4 30.8182C403.915 28.4545 408.324 27.2727 413.627 27.2727C418.476 27.2727 422.703 28.3333 426.309 30.4545C429.945 32.5455 432.764 35.5606 434.764 39.5C436.794 43.4091 437.794 48.0909 437.764 53.5455V98H418.4V57C418.43 52.697 417.339 49.3485 415.127 46.9545C412.945 44.5606 409.885 43.3636 405.945 43.3636C403.309 43.3636 400.976 43.9242 398.945 45.0455C396.945 46.1667 395.37 47.803 394.218 49.9545C393.097 52.0758 392.521 54.6364 392.491 57.6364Z" fill="white"/>
<path d="M448.136 78.7841V74.7273H467.25V78.7841H460.125V98H455.261V78.7841H448.136ZM470.078 98V74.7273H479.26C481.017 74.7273 482.517 75.0417 483.76 75.6705C485.01 76.2917 485.96 77.1742 486.612 78.3182C487.271 79.4545 487.6 80.7917 487.6 82.3295C487.6 83.875 487.267 85.2045 486.6 86.3182C485.934 87.4242 484.968 88.2727 483.703 88.8636C482.445 89.4545 480.922 89.75 479.135 89.75H472.987V85.7955H478.339C479.278 85.7955 480.059 85.6667 480.68 85.4091C481.301 85.1515 481.763 84.7652 482.066 84.25C482.377 83.7348 482.532 83.0947 482.532 82.3295C482.532 81.5568 482.377 80.9053 482.066 80.375C481.763 79.8447 481.297 79.4432 480.669 79.1705C480.047 78.8902 479.263 78.75 478.316 78.75H474.998V98H470.078ZM482.646 87.4091L488.43 98H482.998L477.339 87.4091H482.646ZM495.678 74.7273V98H490.758V74.7273H495.678ZM518.872 74.7273V98H514.622L504.497 83.3523H504.327V98H499.406V74.7273H503.725L513.77 89.3636H513.975V74.7273H518.872ZM527.538 74.7273V98H522.618V74.7273H527.538ZM530.38 78.7841V74.7273H549.494V78.7841H542.369V98H537.505V78.7841H530.38ZM550.958 74.7273H556.469L561.776 84.75H562.003L567.31 74.7273H572.821L564.333 89.7727V98H559.446V89.7727L550.958 74.7273Z" fill="white"/>
</svg>
